<svg width="26" height="25" viewBox="0 0 26 25" fill="none" xmlns="http://www.w3.org/2000/svg">
<path d="M11.2128 3.2666L12.3056 2.18262C12.7683 1.72363 13.5166 1.72363 13.9744 2.18262L23.5437 11.6699C24.0064 12.1289 24.0064 12.8711 23.5437 13.3252L13.9744 22.8174C13.5116 23.2764 12.7634 23.2764 12.3056 22.8174L11.2128 21.7334C10.7452 21.2695 10.755 20.5127 11.2325 20.0586L17.1641 14.4531H3.01685C2.36216 14.4531 1.83545 13.9307 1.83545 13.2812V11.7188C1.83545 11.0693 2.36216 10.5469 3.01685 10.5469H17.1641L11.2325 4.94141C10.7501 4.4873 10.7403 3.73047 11.2128 3.2666Z" fill="black"/>
</svg>
